<svg xmlns="http://www.w3.org/2000/svg" xlink="http://www.w3.org/1999/xlink" width="0" height="0" style="display:none;"><symbol id="icon-email"><defs><style type="text/css"/></defs><path d="M1021.407 146.857L512.645 574.783 3.909 146.857zM0.007 183.402L339.886 471.24 0.007 876.743z" p-id="13614"/><path d="M39.354 877.144L363.529 494.4 512.54 616.772l149.274-126.179 324.157 386.551zM1023.993 876.743L684.122 471.24l339.871-287.838z" p-id="13615"/></symbol><symbol id="icon-password"><defs><style type="text/css"/></defs><path d="M780.8 354.579692 665.6 354.579692 665.6 311.689846c0-72.310154-19.849846-193.299692-153.6-193.299692-138.870154 0-153.6 135.049846-153.6 193.299692l0 42.889846L243.2 354.579692 243.2 311.689846C243.2 122.249846 348.790154 0 512 0s268.8 122.249846 268.8 311.689846L780.8 354.579692zM588.8 669.420308C588.8 625.900308 554.220308 590.769231 512 590.769231s-76.8 35.131077-76.8 78.651077c0 29.459692 15.399385 54.468923 38.439385 67.820308l0 89.639385c0 21.740308 17.250462 39.699692 38.4 39.699692s38.4-17.959385 38.4-39.699692l0-89.639385C573.44 723.889231 588.8 698.88 588.8 669.420308zM896 512l0 393.609846c0 65.260308-51.869538 118.390154-115.2 118.390154L243.2 1024c-63.291077 0-115.2-53.129846-115.2-118.390154L128 512c0-65.220923 51.869538-118.390154 115.2-118.390154l537.6 0C844.130462 393.609846 896 446.779077 896 512z" p-id="9230"/></symbol></svg>